<!-- <svg viewBox="0 0 52 52" xmlns="http://www.w3.org/2000/svg">
  <path d="M36.4 14.8
  h8.48
  A1.09 1.09 0 0046 13.68
  a1 1 0 00-.32-.8
  L35.12 2.32
  a1 1 0 00-.8-.32 1.09 1.09 0 00-1.12 1.12
  v8.48
  a3.21 3.21 0 003.2 3.2
  z"></path>
  <path d="M 44.4 19.6 L 33.2 19.6 C 30.551 19.594 28.406 17.449 28.4 14.8 L 28.4 3.6 C 28.4 2.716 27.684 2 26.8 2 L 10.8 2 C 8.151 2.006 6.006 4.151 6 6.8 L 6 34.2 C 6.006 36.849 8.151 38.994 10.8 39 L 41.2 39 C 43.849 38.994 45.994 36.849 46 34.2 L 46 21.2 C 46 20.316 45.284 19.6 44.4 19.6 Z M 12.4 18 C 12.437 17.14 13.14 16.46 14 16.45 L 20.55 16.45 C 21.412 16.444 22.114 17.138 22.12 18 L 22.12 19.59 C 22.094 20.455 21.395 21.149 20.53 21.17 L 14 21.17 C 13.12 21.187 12.403 20.47 12.42 19.59 L 12.4 18 Z M 39.6 29.17 C 39.617 30.065 38.896 30.8 38 30.8 L 14 30.8 C 13.116 30.8 12.4 30.084 12.4 29.2 L 12.4 27.6 C 12.4 26.716 13.116 26 14 26 L 38 26 C 38.884 26 39.6 26.716 39.6 27.6 L 39.6 29.17 Z"></path>
  <circle cx="8" cy="46" r="4"></circle>
  <circle cx="20" cy="46" r="4"></circle>
  <path d="M 32 44 C 33.1 44 34 44.9 34 46 C 34 47.1 33.1 48 32 48 C 30.9 48 30 47.1 30 46 C 30 44.9 30.9 44 32 44 M 32 42 C 29.8 42 28 43.8 28 46 C 28 48.2 29.8 50 32 50 C 34.2 50 36 48.2 36 46 C 36 43.8 34.2 42 32 42 Z"></path>
  <circle cx="44" cy="46" r="4"></circle>
</svg> -->

<svg viewBox="0 0 52 52" xmlns="http://www.w3.org/2000/svg">
  <path d="M36.4 14.8
  h8.48
  A1.09 1.09 0 0046 13.68
  a1 1 0 00-.32-.8
  L35.12 2.32
  a1 1 0 00-.8-.32 1.09 1.09 0 00-1.12 1.12
  v8.48
  a3.21 3.21 0 003.2 3.2
  z" style="fill: rgb(255, 116, 56);"></path>
  <path d="M 44.4 19.6 L 33.2 19.6 C 30.551 19.594 28.406 17.449 28.4 14.8 L 28.4 3.6 C 28.4 2.716 27.684 2 26.8 2 L 10.8 2 C 8.151 2.006 6.006 4.151 6 6.8 L 6 34.2 C 6.006 36.849 8.151 38.994 10.8 39 L 41.2 39 C 43.849 38.994 45.994 36.849 46 34.2 L 46 21.2 C 46 20.316 45.284 19.6 44.4 19.6 Z M 12.4 18 C 12.437 17.14 13.14 16.46 14 16.45 L 20.55 16.45 C 21.412 16.444 22.114 17.138 22.12 18 L 22.12 19.59 C 22.094 20.455 21.395 21.149 20.53 21.17 L 14 21.17 C 13.12 21.187 12.403 20.47 12.42 19.59 L 12.4 18 Z M 39.6 29.17 C 39.617 30.065 38.896 30.8 38 30.8 L 14 30.8 C 13.116 30.8 12.4 30.084 12.4 29.2 L 12.4 27.6 C 12.4 26.716 13.116 26 14 26 L 38 26 C 38.884 26 39.6 26.716 39.6 27.6 L 39.6 29.17 Z" style="fill: rgb(74, 198, 236);"></path>
  <circle cx="8" cy="46" r="4" style="fill: rgb(74, 198, 236);"></circle>
  <circle cx="20" cy="46" r="4" style="fill: rgb(74, 198, 236);"></circle>
  <path d="M 32 44 C 33.1 44 34 44.9 34 46 C 34 47.1 33.1 48 32 48 C 30.9 48 30 47.1 30 46 C 30 44.9 30.9 44 32 44 M 32 42 C 29.8 42 28 43.8 28 46 C 28 48.2 29.8 50 32 50 C 34.2 50 36 48.2 36 46 C 36 43.8 34.2 42 32 42 Z" style="fill: rgb(255, 116, 56);"></path>
  <circle cx="44" cy="46" r="4" style="fill: rgb(74, 198, 236);"></circle>
</svg>